<?xml version="1.0" encoding="UTF-8" standalone="no"?>
<svg
   xmlns:dc="http://purl.org/dc/elements/1.1/"
   xmlns:cc="http://creativecommons.org/ns#"
   xmlns:rdf="http://www.w3.org/1999/02/22-rdf-syntax-ns#"
   xmlns:svg="http://www.w3.org/2000/svg"
   xmlns="http://www.w3.org/2000/svg"
   xmlns:sodipodi="http://sodipodi.sourceforge.net/DTD/sodipodi-0.dtd"
   xmlns:inkscape="http://www.inkscape.org/namespaces/inkscape"
   width="100"
   height="100"
   viewBox="0 0 100 100"
   version="1.1"
   id="svg14"
   sodipodi:docname="block-type.svg"
   inkscape:version="0.92.3 (2405546, 2018-03-11)">
  <metadata
     id="metadata20">
    <rdf:RDF>
      <cc:Work
         rdf:about="">
        <dc:format>image/svg+xml</dc:format>
        <dc:type
           rdf:resource="http://purl.org/dc/dcmitype/StillImage" />
      </cc:Work>
    </rdf:RDF>
  </metadata>
  <defs
     id="defs18" />
  <sodipodi:namedview
     pagecolor="#ffffff"
     bordercolor="#666666"
     borderopacity="1"
     objecttolerance="10"
     gridtolerance="10"
     guidetolerance="10"
     inkscape:pageopacity="0"
     inkscape:pageshadow="2"
     inkscape:window-width="1920"
     inkscape:window-height="1025"
     id="namedview16"
     showgrid="false"
     inkscape:zoom="2.36"
     inkscape:cx="0.63559322"
     inkscape:cy="50"
     inkscape:window-x="0"
     inkscape:window-y="27"
     inkscape:window-maximized="1"
     inkscape:current-layer="svg14" />
  <path
     inkscape:connector-curvature="0"
     id="path2"
     d="M 86.001821,9.677968 H 13.998185 c -4.75224,0 -8.640436,3.888196 -8.640436,8.640436 0,4.75224 3.888196,8.640436 8.640436,8.640436 h 72.003636 c 4.75224,0 8.64043,-3.888196 8.64043,-8.640436 0,-4.75224 -3.88819,-8.640436 -8.64043,-8.640436 z"
     style="stroke-width:0.72003633" />
  <path
     inkscape:connector-curvature="0"
     id="path4"
     d="M 86.001821,41.359566 H 13.998185 c -4.75224,0 -8.640436,3.888196 -8.640436,8.640436 0,4.75224 3.888196,8.640436 8.640436,8.640436 h 72.003636 c 4.75224,0 8.64043,-3.888196 8.64043,-8.640436 0,-4.75224 -3.88819,-8.640436 -8.64043,-8.640436 z"
     style="stroke-width:0.72003633" />
  <path
     inkscape:connector-curvature="0"
     id="path6"
     d="M 86.001821,73.041164 H 13.998185 c -4.75224,0 -8.640436,3.888196 -8.640436,8.640436 0,4.752242 3.888196,8.640432 8.640436,8.640432 h 72.003636 c 4.75224,0 8.64043,-3.88819 8.64043,-8.640432 0,-4.75224 -3.88819,-8.640436 -8.64043,-8.640436 z"
     style="stroke-width:0.72003633" />
</svg>
