<?xml version="1.0" encoding="UTF-8" standalone="no"?>
<svg
   xmlns:dc="http://purl.org/dc/elements/1.1/"
   xmlns:cc="http://creativecommons.org/ns#"
   xmlns:rdf="http://www.w3.org/1999/02/22-rdf-syntax-ns#"
   xmlns:svg="http://www.w3.org/2000/svg"
   xmlns="http://www.w3.org/2000/svg"
   xmlns:sodipodi="http://sodipodi.sourceforge.net/DTD/sodipodi-0.dtd"
   xmlns:inkscape="http://www.inkscape.org/namespaces/inkscape"
   version="1.1"
   x="0px"
   y="0px"
   viewBox="0 0 8 8"
   enable-background="new 0 0 8 8"
   xml:space="preserve"
   id="svg4"
   sodipodi:docname="bold.svg"
   inkscape:version="0.92.3 (2405546, 2018-03-11)"><metadata
     id="metadata10"><rdf:RDF><cc:Work
         rdf:about=""><dc:format>image/svg+xml</dc:format><dc:type
           rdf:resource="http://purl.org/dc/dcmitype/StillImage" /></cc:Work></rdf:RDF></metadata><defs
     id="defs8" /><sodipodi:namedview
     pagecolor="#ffffff"
     bordercolor="#666666"
     borderopacity="1"
     objecttolerance="10"
     gridtolerance="10"
     guidetolerance="10"
     inkscape:pageopacity="0"
     inkscape:pageshadow="2"
     inkscape:window-width="1920"
     inkscape:window-height="1025"
     id="namedview6"
     showgrid="false"
     inkscape:zoom="29.5"
     inkscape:cx="4"
     inkscape:cy="4"
     inkscape:window-x="0"
     inkscape:window-y="27"
     inkscape:window-maximized="1"
     inkscape:current-layer="svg4" /><path
     d="m 6.9830509,5.1171049 c 0,1.0298545 -0.8344729,1.8658188 -1.8643274,1.8658188 H 2.5086653 1.3900689 c -0.2058218,0 -0.3721197,-0.1677894 -0.3721197,-0.3728654 0,-0.2050761 0.1662979,-0.3728655 0.3721197,-0.3728655 0.205076,0 0.3728655,-0.1677894 0.3728655,-0.3743569 V 2.1356726 c 0,-0.2065674 -0.1677895,-0.3728654 -0.3728655,-0.3728654 -0.2058218,0 -0.3721197,-0.1670437 -0.3721197,-0.3728654 0,-0.2058218 0.1662979,-0.3728655 0.3721197,-0.3728655 h 1.1185964 2.2371928 c 0.8232869,0 1.4914618,0.6681749 1.4914618,1.4914618 0,0.351985 -0.12752,0.6711579 -0.3303588,0.9261979 0.6338713,0.299038 1.0760898,0.9373837 1.0760898,1.6823689 z M 4.0001271,1.7628072 H 3.440829 c -0.1036566,0 -0.1864328,0.082776 -0.1864328,0.1864328 v 1.1185964 c 0,0.1021651 0.082776,0.1864327 0.1864328,0.1864327 h 0.5592981 c 0.4123893,0 0.745731,-0.3333417 0.745731,-0.745731 0,-0.4123891 -0.3333417,-0.7457309 -0.745731,-0.7457309 z M 4.3729926,4 H 3.440829 C 3.3371724,4 3.2543962,4.0827761 3.2543962,4.1864327 V 6.05076 c 0,0.1021652 0.082776,0.1864328 0.1864328,0.1864328 h 0.9321636 c 0.6174652,0 1.1185964,-0.5011312 1.1185964,-1.1200879 C 5.491589,4.5003855 4.9904578,4 4.3729926,4 Z"
     id="path2"
     inkscape:connector-curvature="0"
     style="clip-rule:evenodd;fill-rule:evenodd;stroke-width:0.74573094" /></svg>