<svg xmlns="http://www.w3.org/2000/svg" xmlns:xlink="http://www.w3.org/1999/xlink" version="1.1" x="0px" y="0px" viewBox="0 0 100 100" style="enable-background:new 0 0 100 100;" xml:space="preserve"><g><path d="M51.4853516,56.2548828c-0.7172852-1.3154297-1.8100586-2.7119141-3.2470703-4.1494141   c-1.4379883-1.4375-2.8339844-2.5302734-4.1494141-3.2470703c-1.3095703-0.7138672-2.9389648-0.6611328-4.2666016,0.1386719   c-1.40625,1.1259766-20.8779297,16.5498047-32.2641602,16.5507812c-0.0986328,0-0.1967773-0.0009766-0.2944336-0.0039062   c-0.0196533,1.0862427,0.2444458,3.3498535,2.0606079,6.7401733c1.2001953,0.0131226,5.654541-0.5354614,15.9252319-7.6366577   c0.4555664-0.3154297,1.0776367-0.2011719,1.3916016,0.2539062c0.3139648,0.4541016,0.2001953,1.0771484-0.2539062,1.390625   c-8.6335449,5.9693604-13.4800415,7.5602417-15.9349365,7.9058838c1.4215698,2.236145,3.4729004,4.8641968,6.4031372,7.8764038   l4.812561-4.812561c0.390625-0.390625,1.0234375-0.390625,1.4140625,0s0.390625,1.0234375,0,1.4140625l-4.8127441,4.8127441   c3.0602417,2.9767456,5.7276611,5.0517578,7.9871216,6.4758301c0.3062134-2.1071167,1.3189697-5.9657593,4.6351929-10.7866211   c0.3129883-0.4550781,0.9355469-0.5703125,1.390625-0.2578125c0.4550781,0.3134766,0.5698242,0.9355469,0.2568359,1.390625   c-3.6511841,5.3084106-4.2848511,9.3370972-4.3921509,10.7512207c3.2216797,1.7089233,5.4193726,2.0163574,6.5410767,2.0163574   c0.0385742,0,0.0756836-0.0009766,0.1113281-0.0009766c-0.2695312-11.3417969,15.4111328-31.1376953,16.5473633-32.5566406   C52.1445312,59.1933594,52.1992188,57.5644531,51.4853516,56.2548828z"></path><path d="M55.7817383,49.3027344c-0.418457-0.5966797-1.1362305-1.5263672-2.175293-2.5654297   c-1.0400391-1.0400391-1.9697266-1.7568359-2.565918-2.1757812c-0.277832-0.1923828-0.6518555-0.1621094-0.8901367,0.0742188   l-3.4963989,3.4963989c0.9828491,0.7010498,1.9845581,1.5454712,2.9983521,2.5592651   c1.0134888,1.0137939,1.857605,2.015564,2.5587769,2.9984131l3.4968872-3.49646   C55.9453125,49.9550781,55.9765625,49.5810547,55.7817383,49.3027344z"></path><path d="M92.3237305,9.890625c-0.2670898-0.359375-0.5585938-0.6972656-0.8657227-1.0048828   C91.1508789,8.5791016,90.8125,8.2871094,90.4521484,8.0185547C89.9223633,7.625,89.2041016,7.6728516,88.7421875,8.1347656   L53.1834106,43.6940308c0.6219482,0.4986572,1.2385864,1.0303955,1.8370972,1.6292114   c0.5983276,0.5983276,1.130249,1.2149658,1.6292725,1.8370361l35.5587158-35.5587158   C92.6694336,11.140625,92.7182617,10.4208984,92.3237305,9.890625z"></path></g></svg>