<?xml version="1.0" encoding="UTF-8" standalone="no"?>
<svg
   xmlns:dc="http://purl.org/dc/elements/1.1/"
   xmlns:cc="http://creativecommons.org/ns#"
   xmlns:rdf="http://www.w3.org/1999/02/22-rdf-syntax-ns#"
   xmlns:svg="http://www.w3.org/2000/svg"
   xmlns="http://www.w3.org/2000/svg"
   xmlns:sodipodi="http://sodipodi.sourceforge.net/DTD/sodipodi-0.dtd"
   xmlns:inkscape="http://www.inkscape.org/namespaces/inkscape"
   width="78.209801"
   height="77.973198"
   viewBox="0 0 78.209801 77.973198"
   version="1.1"
   id="svg12"
   sodipodi:docname="help.svg"
   inkscape:version="0.92.3 (2405546, 2018-03-11)">
  <metadata
     id="metadata18">
    <rdf:RDF>
      <cc:Work
         rdf:about="">
        <dc:format>image/svg+xml</dc:format>
        <dc:type
           rdf:resource="http://purl.org/dc/dcmitype/StillImage" />
        <dc:title></dc:title>
      </cc:Work>
    </rdf:RDF>
  </metadata>
  <defs
     id="defs16" />
  <sodipodi:namedview
     pagecolor="#ffffff"
     bordercolor="#666666"
     borderopacity="1"
     objecttolerance="10"
     gridtolerance="10"
     guidetolerance="10"
     inkscape:pageopacity="0"
     inkscape:pageshadow="2"
     inkscape:window-width="1920"
     inkscape:window-height="1025"
     id="namedview14"
     showgrid="false"
     inkscape:zoom="2.36"
     inkscape:cx="-10.270476"
     inkscape:cy="38.980194"
     inkscape:window-x="0"
     inkscape:window-y="27"
     inkscape:window-maximized="1"
     inkscape:current-layer="svg12"
     fit-margin-top="0"
     fit-margin-left="0"
     fit-margin-right="0"
     fit-margin-bottom="0" />
  <path
     d="M 34.993931,0.29300622 C 17.393931,2.3930062 3.8939312,14.993006 0.69393121,31.593006 c -4.00000001,21.1 9.69999979,41.7 30.59999979,46 1.1,0.2 12.4,1.3 20.9,-1.5 14.4,-5.6 23.2,-15.9 25.8,-31.3 0.1,-0.3 1.4,-12.9 -3.8,-23.1 -6.9,-14.0999998 -22.1,-23.4999998 -39.2,-21.39999978 z m 3.5,62.69999978 c -3.2,0 -5.6,-2.4 -5.6,-5.5 0,-3.4 2.3,-5.8 5.6,-5.8 3.3,-0.1 5.8,2.4 5.8,5.7 0,3.2 -2.4,5.6 -5.8,5.6 z m 12.4,-26.1 c -1.4,1.2 -2.8,2.3 -4.3,3.3 -2.2,1.5 -3.5,3.8 -3.5,6.8 -2.9,0 -6,0 -9,0 -0.4,-3.2 -0.2,-6.8 2.7,-9.1 1.7,-1.3 3.5,-2.4 4.9,-3.8 1.3,-1.4 2.6,-3.1 3.2,-4.8 0.7,-2.2 -1,-4.8 -2.9,-5.5 -2.8,-1 -6.2,-0.2 -7.4,2.1 -0.7,1.3 -1.1,2.9 -1.7,4.5 -2.8,0 -5.6,0 -8.4,0 -0.9,-4.5 1.6,-10 5.8,-12.7 5.8,-3.6 15.7,-2.8 20.8,1.8 5.1,4.5 5,12.9 -0.2,17.4 z"
     id="path2"
     inkscape:connector-curvature="0" />
</svg>
