<svg xmlns="http://www.w3.org/2000/svg" xmlns:xlink="http://www.w3.org/1999/xlink" version="1.1" x="0px" y="0px" viewBox="0 0 100 100" enable-background="new 0 0 100 100" xml:space="preserve"><g><path d="M18.45,22.033l9.525,9.524c-7.833,3.848-15.596,9.79-23.229,17.822l0.064,0.062l-0.064,0.062   C19.114,64.621,33.945,72.39,48.827,72.589c0.198,0.003,0.393,0.004,0.59,0.004c5.468,0,10.981-1.041,16.521-3.072l11.014,11.013   l2.566-2.566l-58.501-58.5L18.45,22.033z M49.415,68.963c-0.179,0-0.36-0.001-0.539-0.004c-13.059-0.176-26.2-6.741-39.102-19.516   c6.923-6.853,13.916-11.912,20.928-15.159l6.856,6.856c-1.632,2.354-2.605,5.193-2.605,8.27c0,8.062,6.559,14.62,14.62,14.62   c3.076,0,5.916-0.975,8.27-2.605l5.236,5.236C58.484,68.178,53.925,68.963,49.415,68.963z M55.234,58.817   c-1.654,1.002-3.59,1.582-5.662,1.582c-6.06,0-10.99-4.93-10.99-10.989c0-2.072,0.58-4.008,1.583-5.662L55.234,58.817z"></path><path d="M63.124,54.869c0.684-1.689,1.068-3.528,1.068-5.459c0-8.062-6.559-14.62-14.62-14.62c-1.93,0-3.771,0.385-5.459,1.067   l2.881,2.881c0.829-0.201,1.689-0.318,2.579-0.318c6.06,0,10.99,4.93,10.99,10.99c0,0.89-0.118,1.75-0.318,2.578L63.124,54.869z"></path><path d="M95.254,49.346C79.71,33.844,64.11,26.117,48.827,26.293c-4.124,0.055-8.244,0.714-12.351,1.927l2.957,2.957   c3.149-0.78,6.299-1.212,9.443-1.255c0.179-0.001,0.358-0.003,0.539-0.003c13.26,0,26.943,6.566,40.717,19.522   c-6.274,5.899-12.529,10.468-18.735,13.699l2.679,2.68c7.049-3.825,14.122-9.245,21.179-16.283l-0.096-0.096L95.254,49.346z"></path></g></svg>