<?xml version="1.0" encoding="UTF-8" standalone="no"?>
<svg
   xmlns:dc="http://purl.org/dc/elements/1.1/"
   xmlns:cc="http://creativecommons.org/ns#"
   xmlns:rdf="http://www.w3.org/1999/02/22-rdf-syntax-ns#"
   xmlns:svg="http://www.w3.org/2000/svg"
   xmlns="http://www.w3.org/2000/svg"
   xmlns:sodipodi="http://sodipodi.sourceforge.net/DTD/sodipodi-0.dtd"
   xmlns:inkscape="http://www.inkscape.org/namespaces/inkscape"
   version="1.1"
   x="0px"
   y="0px"
   viewBox="0 0 100 100"
   enable-background="new 0 0 100 100"
   xml:space="preserve"
   id="svg6"
   sodipodi:docname="italic.svg"
   inkscape:version="0.92.3 (2405546, 2018-03-11)"><metadata
     id="metadata12"><rdf:RDF><cc:Work
         rdf:about=""><dc:format>image/svg+xml</dc:format><dc:type
           rdf:resource="http://purl.org/dc/dcmitype/StillImage" /></cc:Work></rdf:RDF></metadata><defs
     id="defs10" /><sodipodi:namedview
     pagecolor="#ffffff"
     bordercolor="#666666"
     borderopacity="1"
     objecttolerance="10"
     gridtolerance="10"
     guidetolerance="10"
     inkscape:pageopacity="0"
     inkscape:pageshadow="2"
     inkscape:window-width="1920"
     inkscape:window-height="1025"
     id="namedview8"
     showgrid="false"
     inkscape:zoom="2.36"
     inkscape:cx="0.63559322"
     inkscape:cy="50"
     inkscape:window-x="0"
     inkscape:window-y="27"
     inkscape:window-maximized="1"
     inkscape:current-layer="svg6" /><g
     id="g4"
     transform="matrix(0.75520481,0,0,0.75520481,12.239759,12.239759)"><path
       d="m 86.35,10 c 0,3.31 -2.69,6 -6,6 H 72.48 L 40.77,84 h 6.27 c 3.32,0 6,2.69 6,6 0,3.31 -2.68,6 -6,6 H 19.65 c -3.31,0 -6,-2.69 -6,-6 0,-3.31 2.69,-6 6,-6 h 7.87 L 59.23,16 h -6.27 c -3.32,0 -6,-2.69 -6,-6 0,-3.31 2.68,-6 6,-6 h 27.39 c 3.31,0 6,2.69 6,6 z"
       id="path2"
       inkscape:connector-curvature="0" /></g></svg>