<?xml version="1.0" encoding="UTF-8" standalone="no"?>
<svg
   xmlns:dc="http://purl.org/dc/elements/1.1/"
   xmlns:cc="http://creativecommons.org/ns#"
   xmlns:rdf="http://www.w3.org/1999/02/22-rdf-syntax-ns#"
   xmlns:svg="http://www.w3.org/2000/svg"
   xmlns="http://www.w3.org/2000/svg"
   xmlns:sodipodi="http://sodipodi.sourceforge.net/DTD/sodipodi-0.dtd"
   xmlns:inkscape="http://www.inkscape.org/namespaces/inkscape"
   width="100"
   height="100"
   viewBox="0 0 100 100"
   version="1.1"
   id="svg10"
   sodipodi:docname="link.svg"
   inkscape:version="0.92.3 (2405546, 2018-03-11)">
  <metadata
     id="metadata16">
    <rdf:RDF>
      <cc:Work
         rdf:about="">
        <dc:format>image/svg+xml</dc:format>
        <dc:type
           rdf:resource="http://purl.org/dc/dcmitype/StillImage" />
      </cc:Work>
    </rdf:RDF>
  </metadata>
  <defs
     id="defs14" />
  <sodipodi:namedview
     pagecolor="#ffffff"
     bordercolor="#666666"
     borderopacity="1"
     objecttolerance="10"
     gridtolerance="10"
     guidetolerance="10"
     inkscape:pageopacity="0"
     inkscape:pageshadow="2"
     inkscape:window-width="1920"
     inkscape:window-height="1025"
     id="namedview12"
     showgrid="false"
     inkscape:zoom="2.36"
     inkscape:cx="0.63559322"
     inkscape:cy="50"
     inkscape:window-x="0"
     inkscape:window-y="27"
     inkscape:window-maximized="1"
     inkscape:current-layer="svg10" />
  <path
     inkscape:connector-curvature="0"
     id="path2"
     d="M 58.893273,72.83277 41.522116,90.205191 c -8.73926,8.73926 -22.933768,8.779679 -31.7248144,0.122519 l -0.00126,0.0013 c -0.020209,-0.02021 -0.040419,-0.04168 -0.060628,-0.06315 -0.020209,-0.02021 -0.041682,-0.04042 -0.063154,-0.06063 0,0 0,0 0,0 l 0.00126,-0.0013 C 1.0163601,81.412882 1.0555156,67.218374 9.7960385,58.479114 L 28.939299,39.335853 c 8.73926,-8.739259 22.933768,-8.779678 31.724814,-0.122519 l 0.0013,-0.0013 c 0.02021,0.02021 0.04042,0.04168 0.06063,0.06189 0.02021,0.02021 0.04168,0.04042 0.06315,0.06189 l -0.0013,0.0013 c 1.050884,1.067304 1.974196,2.212919 2.768675,3.419162 l -5.201369,5.201369 c -1.482858,1.482857 -3.741247,1.721579 -5.479247,0.726271 -0.228618,-0.287982 -0.473656,-0.56586 -0.73764,-0.833633 -4.054491,-3.981233 -10.590937,-3.961023 -14.61764,0.06568 L 18.37615,67.059226 c -4.029229,4.029229 -4.048176,10.569464 -0.06063,14.623955 4.054491,3.987548 10.59599,3.968602 14.623956,-0.06063 L 43.820924,70.741108 c 4.770658,2.068927 9.996025,2.764885 15.072349,2.091662 z M 90.20506,9.671125 90.20376,9.672385 C 81.41275,1.0152286 67.218242,1.0543841 58.478983,9.794907 L 41.106562,27.167328 c 5.077587,-0.673223 10.302954,0.02273 15.072349,2.090399 L 67.060357,18.376282 c 4.02923,-4.02923 10.569465,-4.048176 14.623956,-0.06063 3.987548,4.054491 3.968602,10.595989 -0.06063,14.623955 L 62.480424,52.084133 c -4.026703,4.026704 -10.563149,4.046913 -14.61764,0.06568 -0.262721,-0.267774 -0.509022,-0.545652 -0.73764,-0.833634 -1.737999,-0.995308 -3.996389,-0.756586 -5.479246,0.726272 l -5.201369,5.201369 c 0.794478,1.206242 1.71779,2.35312 2.768674,3.419161 l -0.0013,0.0013 c 0.02021,0.02021 0.04168,0.04042 0.06315,0.06189 0.02021,0.02021 0.04042,0.04168 0.06063,0.06189 l 0.0013,-0.0013 c 8.791046,8.657159 22.985554,8.618004 31.724814,-0.122519 L 90.20506,41.520984 c 8.739259,-8.73926 8.779678,-22.933768 0.122519,-31.724814 l 0.0013,-0.00126 v 0 C 90.308669,9.774701 90.287199,9.754491 90.265729,9.734282 90.245519,9.71281 90.225309,9.6926 90.205099,9.671128 Z"
     style="stroke-width:1.26308131" />
</svg>
