<?xml version="1.0" encoding="UTF-8" standalone="no"?>
<svg
   xmlns:dc="http://purl.org/dc/elements/1.1/"
   xmlns:cc="http://creativecommons.org/ns#"
   xmlns:rdf="http://www.w3.org/1999/02/22-rdf-syntax-ns#"
   xmlns:svg="http://www.w3.org/2000/svg"
   xmlns="http://www.w3.org/2000/svg"
   xmlns:sodipodi="http://sodipodi.sourceforge.net/DTD/sodipodi-0.dtd"
   xmlns:inkscape="http://www.inkscape.org/namespaces/inkscape"
   version="1.1"
   x="0px"
   y="0px"
   viewBox="0 0 21.799999 92"
   xml:space="preserve"
   id="svg3411"
   inkscape:version="0.91 r13725"
   sodipodi:docname="menu.svg"
   width="21.799999"
   height="92"><metadata
     id="metadata3425"><rdf:RDF><cc:Work
         rdf:about=""><dc:format>image/svg+xml</dc:format><dc:type
           rdf:resource="http://purl.org/dc/dcmitype/StillImage" /><dc:title></dc:title></cc:Work></rdf:RDF></metadata><defs
     id="defs3423" /><sodipodi:namedview
     pagecolor="#ffffff"
     bordercolor="#666666"
     borderopacity="1"
     objecttolerance="10"
     gridtolerance="10"
     guidetolerance="10"
     inkscape:pageopacity="0"
     inkscape:pageshadow="2"
     inkscape:window-width="1920"
     inkscape:window-height="1016"
     id="namedview3421"
     showgrid="false"
     fit-margin-top="0"
     fit-margin-left="0"
     fit-margin-right="0"
     fit-margin-bottom="0"
     inkscape:zoom="2.36"
     inkscape:cx="11.747458"
     inkscape:cy="43.542372"
     inkscape:window-x="0"
     inkscape:window-y="27"
     inkscape:window-maximized="1"
     inkscape:current-layer="svg3411" /><path
     inkscape:connector-curvature="0"
     id="path3415"
     d="m 0,10.9 c 0,6 5,10.9 10.9,10.9 5.9,0 10.9,-5 10.9,-10.9 C 21.8,4.9 16.8,0 10.9,0 5,0 0,5 0,10.9 Z" /><path
     inkscape:connector-curvature="0"
     id="path3417"
     d="m 0,46.000004 c 0,6 5,10.9 10.9,10.9 5.9,0 10.9,-5 10.9,-10.9 0,-6 -5,-10.9 -10.9,-10.9 -5.9,0 -10.9,4.9 -10.9,10.9 z" /><path
     inkscape:connector-curvature="0"
     id="path3419"
     d="m 21.8,81.1 c 0,-6 -5,-10.9 -10.9,-10.9 C 5,70.2 0,75.2 0,81.1 0,87.1 5,92 10.9,92 16.8,92 21.8,87 21.8,81.1 Z" /></svg>