<svg xmlns="http://www.w3.org/2000/svg" xmlns:xlink="http://www.w3.org/1999/xlink" version="1.1" x="0px" y="0px" viewBox="0 0 100 100" enable-background="new 0 0 100 100" xml:space="preserve"><g><path d="M94.754,49.906c-15.175-15.134-30.421-22.802-45.33-22.802c-0.194,0-0.39,0.001-0.583,0.004   C34.123,27.306,19.456,34.987,5.246,49.94l0.063,0.061l-0.063,0.06c14.209,14.953,28.877,22.634,43.595,22.832   c0.194,0.003,0.388,0.004,0.583,0.004c14.908,0,30.155-7.669,45.33-22.801l-0.095-0.095L94.754,49.906z M48.889,69.303   c-12.915-0.174-25.912-6.667-38.672-19.302c12.76-12.636,25.758-19.13,38.672-19.304c0.178-0.001,0.355-0.003,0.533-0.003   c13.112,0,26.644,6.493,40.266,19.305C75.88,62.986,62.166,69.479,48.889,69.303z"></path><path d="M49.578,35.511c-7.973,0-14.458,6.486-14.458,14.459c0,7.973,6.486,14.458,14.458,14.458   c7.973,0,14.458-6.485,14.458-14.458C64.036,41.997,57.551,35.511,49.578,35.511z M49.578,60.838   c-5.993,0-10.868-4.875-10.868-10.868s4.875-10.869,10.868-10.869s10.869,4.875,10.869,10.869S55.57,60.838,49.578,60.838z"></path></g></svg>