<?xml version="1.0" encoding="UTF-8" standalone="no"?>
<svg
   xmlns:dc="http://purl.org/dc/elements/1.1/"
   xmlns:cc="http://creativecommons.org/ns#"
   xmlns:rdf="http://www.w3.org/1999/02/22-rdf-syntax-ns#"
   xmlns:svg="http://www.w3.org/2000/svg"
   xmlns="http://www.w3.org/2000/svg"
   xmlns:sodipodi="http://sodipodi.sourceforge.net/DTD/sodipodi-0.dtd"
   xmlns:inkscape="http://www.inkscape.org/namespaces/inkscape"
   version="1.1"
   x="0px"
   y="0px"
   viewBox="0 0 100 100"
   enable-background="new 0 0 100 100"
   xml:space="preserve"
   id="svg18"
   sodipodi:docname="unindent.svg"
   inkscape:version="0.92.3 (2405546, 2018-03-11)"><metadata
     id="metadata24"><rdf:RDF><cc:Work
         rdf:about=""><dc:format>image/svg+xml</dc:format><dc:type
           rdf:resource="http://purl.org/dc/dcmitype/StillImage" /><dc:title></dc:title></cc:Work></rdf:RDF></metadata><defs
     id="defs22" /><sodipodi:namedview
     pagecolor="#ffffff"
     bordercolor="#666666"
     borderopacity="1"
     objecttolerance="10"
     gridtolerance="10"
     guidetolerance="10"
     inkscape:pageopacity="0"
     inkscape:pageshadow="2"
     inkscape:window-width="755"
     inkscape:window-height="480"
     id="namedview20"
     showgrid="false"
     inkscape:zoom="2.36"
     inkscape:cx="50"
     inkscape:cy="50"
     inkscape:window-x="0"
     inkscape:window-y="27"
     inkscape:window-maximized="0"
     inkscape:current-layer="svg18" /><g
     id="g4"><path
       d="M90,84.14H52.139c-3.313,0-6-2.687-6-6s2.687-6,6-6H90c3.313,0,6,2.687,6,6S93.313,84.14,90,84.14z"
       id="path2" /></g><g
     id="g8"><path
       d="M90,27.86H52.139c-3.313,0-6-2.687-6-6s2.687-6,6-6H90c3.313,0,6,2.687,6,6S93.313,27.86,90,27.86z"
       id="path6" /></g><g
     id="g12"><path
       d="M90,56H52.139c-3.313,0-6-2.687-6-6s2.687-6,6-6H90c3.313,0,6,2.687,6,6S93.313,56,90,56z"
       id="path10" /></g><g
     id="g16"
     transform="matrix(-1,0,0,1,35.293,0)"><path
       d="m 10,71.293 c -1.535,0 -3.071,-0.586 -4.242,-1.757 -2.344,-2.343 -2.344,-6.142 0,-8.485 L 16.808,50 5.758,38.95 c -2.344,-2.343 -2.344,-6.142 0,-8.485 2.342,-2.343 6.143,-2.343 8.484,0 l 15.293,15.293 c 2.344,2.343 2.344,6.142 0,8.485 L 14.242,69.536 C 13.071,70.707 11.535,71.293 10,71.293 Z"
       id="path14"
       inkscape:connector-curvature="0" /></g></svg>